{"title":"Lions for Lambs-720p MP4 AAC BRRip 2007-CC","uid":7128058,"size":1983730943,"categoryP":"video","categoryS":"hd___movies","magnet":"?xt=urn:btih:7d9fa3583eb4ca2f42465ac6e04e5b1acb0d4e82&amp;dn=Lions+for+Lambs-720p+MP4+AAC+BRRip+2007-CC&amp;tr=udp%3A%2F%2Ftracker.openbittorrent.com%3A80&amp;tr=udp%3A%2F%2Fopen.demonii.com%3A1337&amp;tr=udp%3A%2F%2Ftracker.coppersurfer.tk%3A6969&amp;tr=udp%3A%2F%2Fexodus.desync.com%3A6969","seeders":2,"leechers":1,"uploader":"Caveman44","files":-1,"time":1332597895,"description":"Source: Lions.for.Lambs.2007.Blu-ray.720p.x264.DD51-MySiLU \n\nSubs: Bulgarian, Croatian, Czech, Danish, Dutch, English, Greek, Hebrew, Indonesian, Persian, Polish, Servian, Slovenian, Swedish and Vietnamese.\n\nSample and Screens included.\n\nGeneral\nComplete name                    : Lions for Lambs-720p MP4 AAC BRRip 2007-CC.mp4\nFormat                           : MPEG-4\nFormat profile                   : Base Media\nCodec ID                         : isom\nFile size                        : 1.82 GiB\nDuration                         : 1h 31mn\nOverall bit rate                 : 2 846 Kbps\nEncoded date                     : UTC 2012-03-23 08:17:37\n\nVideo\nID                               : 1\nFormat                           : AVC\nFormat/Info                      : Advanced Video Codec\nFormat profile                   : &lt;a class=&quot;__cf_email__&quot; href=&quot;/cdn-cgi/l/email-protection&quot; data-cfemail=&quot;e4ac8d838ca4a8d7cad5&quot;&gt;[email&amp;#160;protected]&lt;/a&gt;&lt;script cf-hash='f9e31' type=&quot;text/javascript&quot;&gt;\n/* &lt;![CDATA[ */!function(){try{var t=&quot;currentScript&quot;in document?document.currentScript:function(){for(var t=document.getElementsByTagName(&quot;script&quot;),e=t.length;e--;)if(t[e].getAttribute(&quot;cf-hash&quot;))return t[e]}();if(t&amp;&amp;t.previousSibling){var e,r,n,i,c=t.previousSibling,a=c.getAttribute(&quot;data-cfemail&quot;);if(a){for(e=&quot;&quot;,r=parseInt(a.substr(0,2),16),n=2;a.length-n;n+=2)i=parseInt(a.substr(n,2),16)^r,e+=String.fromCharCode(i);e=document.createTextNode(e),c.parentNode.replaceChild(e,c)}}}catch(u){}}();/* ]]&gt; */&lt;/script&gt;\nFormat settings, CABAC           : Yes\nFormat settings, ReFrames        : 5 frames\nCodec ID                         : avc1\nCodec ID/Info                    : Advanced Video Coding\nDuration                         : 1h 31mn\nBit rate mode                    : Variable\nBit rate                         : 2 458 Kbps\nNominal bit rate                 : 2 553 Kbps\nMaximum bit rate                 : 19.7 Mbps\nWidth                            : 1 280 pixels\nHeight                           : 528 pixels\nDisplay aspect ratio             : 2.40:1\nFrame rate mode                  : Variable\nFrame rate                       : 23.976 fps\nMinimum frame rate               : 19.048 fps\nMaximum frame rate               : 24.390 fps\nResolution                       : 24 bits\nColorimetry                      : 4:2:0\nScan type                        : Progressive\nBits/(Pixel*Frame)               : 0.152\nStream size                      : 1.57 GiB (86%)\nWriting library                  : x264 core 112\n\n\nAudio\nID                               : 2\nFormat                           : AAC\nFormat/Info                      : Advanced Audio Codec\nFormat version                   : Version 4\nFormat profile                   : LC\nFormat settings, SBR             : No\nCodec ID                         : 40\nDuration                         : 1h 31mn\nBit rate mode                    : Variable\nBit rate                         : 384 Kbps\nMaximum bit rate                 : 656 Kbps\nChannel(s)                       : 6 channels\nChannel positions                : Front: L C R, Rear: L R, LFE\nSampling rate                    : 48.0 KHz\nResolution                       : 16 bits\nStream size                      : 251 MiB (13%)\nLanguage                         : English","torrent":{"xt":"urn:btih:7d9fa3583eb4ca2f42465ac6e04e5b1acb0d4e82","amp;dn":"Lions+for+Lambs-720p+MP4+AAC+BRRip+2007-CC","amp;tr":["udp%3A%2F%2Ftracker.openbittorrent.com%3A80","udp%3A%2F%2Fopen.demonii.com%3A1337","udp%3A%2F%2Ftracker.coppersurfer.tk%3A6969","udp%3A%2F%2Fexodus.desync.com%3A6969"],"infoHash":"7d9fa3583eb4ca2f42465ac6e04e5b1acb0d4e82","infoHashBuffer":{"type":"Buffer","data":[125,159,163,88,62,180,202,47,66,70,90,198,224,78,91,26,203,13,78,130]},"announce":[],"urlList":[]}}